# xmcd CD database file
#
# Track frame offsets:
#	150
#	41402
#	62460
#	123535
#	172103
#	187976
#	233089
#	276690
#	315227
#
# Disc length: 4704 seconds
#
# Revision: 0
# Processed by: cddbd v1.5.2PL0 Copyright (c) Steve Scherf et al.
# Submitted via: CDex 1.51
#
DISCID=79125e09
DTITLE=Wolfgang Sawallisch  - Paul Hindemith   - HINDEMITH  Cd 01
DYEAR=2008
DGENRE=Clasica
TTITLE0=Symphonie 'Mathis der Maler'  I. Engelskonzert 
TTITLE1=Symphonie 'Mathis der Maler'  II. Grablegung (Sehr langsam) 
TTITLE2=Symphonie 'Mathis der Maler'   III. Versuchung des heiligen Antoniu
TTITLE3=Symphonia serena  I. Moderately fast 
TTITLE4=Symphonia serena II. Geschwindmarsch
TTITLE5=Symphonia serena   III. Colloquy 
TTITLE6=Symphonia serena  IV. Finale (Gay) 
TTITLE7=Concert Music, Op.50   I. Mässig schnell, mit Kraft
TTITLE8=Concert Music, Op.50  II. Lebhaft - Langsam
EXTD=YEAR: 2008
EXTT0=
EXTT1=
EXTT2=
EXTT3=
EXTT4=
EXTT5=
EXTT6=
EXTT7=
EXTT8=
PLAYORDER=
